# xmcd CD database file
#
# Track frame offsets:
#	150
#	21839
#	47499
#	70471
#	97244
#	124176
#	147055
#	171075
#	204565
#	221116
#	244146
#	271698
#	298923
#	330634
#
# Disc length: 4762 seconds
#
# Revision: 0
# Processed by: cddbd v1.5.1PL2 Copyright (c) Steve Scherf et al.
# Submitted via: CDex 1.51
#
DISCID=dd12980e
DTITLE=MEDITATION - MEDITATION MOOD CD2
DYEAR=1900
DGENRE=New Age
TTITLE0=LIN FU CHANG MEDITATION
TTITLE1=WEI LI VISION PART 2
TTITLE2=RAVI GUARDIAN ANGEL PART 2
TTITLE3=MICHIKO EMOTIONAL BALANCE
TTITLE4=WEI LI REALM ENLIGHTMENT
TTITLE5=RAVI SANCTUM
TTITLE6=LAVANTIS NEW DAWN
TTITLE7=WEI LI KARMA
TTITLE8=RAVI FONTAIN OF LIVE
TTITLE9=MICHIKO VIBRATION
TTITLE10=WEI LI HEAVENLY DELIGHT
TTITLE11=RAJIV ETERNAL
TTITLE12=WEI LI WHISPERS FROM BEYOND
TTITLE13=LIFU MEDITATION FINAL
EXTD=
EXTT0=
EXTT1=
EXTT2=
EXTT3=
EXTT4=
EXTT5=
EXTT6=
EXTT7=
EXTT8=
EXTT9=
EXTT10=
EXTT11=
EXTT12=
EXTT13=
PLAYORDER=
